Coordinates
version=1
nRows=16
nColumns=38
inDegrees=no

Units are S.I. units (second, meters, Newtons, ...)
If the header above contains a line with 'inDegrees', this indicates whether rotational values are in degrees (yes) or radians (no).

endheader
time	pelvis_tilt	pelvis_list	pelvis_rotation	pelvis_tx	pelvis_ty	pelvis_tz	hip_flexion_r	hip_adduction_r	hip_rotation_r	knee_angle_r	ankle_angle_r	subtalar_angle_r	mtp_angle_r	hip_flexion_l	hip_adduction_l	hip_rotation_l	knee_angle_l	ankle_angle_l	subtalar_angle_l	mtp_angle_l	lumbar_extension	lumbar_bending	lumbar_rotation	arm_flex_r	arm_add_r	arm_rot_r	elbow_flex_r	pro_sup_r	wrist_flex_r	wrist_dev_r	arm_flex_l	arm_add_l	arm_rot_l	elbow_flex_l	pro_sup_l	wrist_flex_l	wrist_dev_l
5.24	-2.56499	1.51747	0.654578	0.807742	-0.45267	0.954809	0.126425	-0.0973824	-0.0564799	0.156759	-0.0517247	0	0	-0.0648134	-0.208112	-0.0936247	0.290941	0.142239	0	0	0.0504942	0.0416543	-0.100347	-0.382258	-0.0408551	-0.258558	0.541807	1.45539	0	0	-0.20447	-0.22874	0.149465	0.643844	0.938829	0	0
5.25	-2.59001	1.51426	0.68607	0.802708	-0.452303	0.955399	0.122914	-0.089999	-0.0615669	0.149568	-0.0524861	0	0	-0.0543546	-0.216384	-0.0865529	0.301291	0.136151	0	0	0.0519636	0.0394361	-0.104999	-0.364217	-0.0396071	-0.277521	0.519651	1.47012	0	0	-0.217718	-0.228886	0.130371	0.663924	0.938675	0	0
5.26	-2.61851	1.51278	0.720978	0.797392	-0.451933	0.955698	0.118372	-0.0840016	-0.0664201	0.142302	-0.0515101	0	0	-0.0446844	-0.223484	-0.0807522	0.312111	0.130709	0	0	0.0542042	0.0420026	-0.0953554	-0.367937	-0.0389933	-0.293676	0.5304	1.48451	0	0	-0.216636	-0.231696	0.139626	0.670017	0.937618	0	0
5.27	-2.63854	1.51073	0.746669	0.792204	-0.451561	0.956016	0.114026	-0.0771879	-0.0697009	0.134739	-0.0514341	0	0	-0.0349506	-0.23096	-0.0758002	0.323046	0.125285	0	0	0.0556801	0.0424033	-0.09215	-0.366324	-0.0415725	-0.298029	0.535935	1.49761	0	0	-0.221997	-0.234107	0.140664	0.68227	0.934541	0	0
5.28	-2.64235	1.5088	0.757477	0.787163	-0.451106	0.956326	0.108483	-0.0698048	-0.0738553	0.126516	-0.0516799	0	0	-0.0246729	-0.239011	-0.0694308	0.335187	0.120379	0	0	0.0560563	0.0431342	-0.0906763	-0.364628	-0.0445498	-0.298943	0.54282	1.50208	0	0	-0.226188	-0.237423	0.145613	0.693113	0.931408	0	0
5.29	-2.63558	1.50724	0.758623	0.782269	-0.45059	0.956656	0.102006	-0.0624126	-0.0787577	0.118009	-0.0519167	0	0	-0.0140857	-0.247011	-0.0615477	0.348391	0.115401	0	0	0.0554048	0.0440323	-0.090089	-0.362879	-0.0476783	-0.297963	0.550522	1.50162	0	0	-0.228811	-0.240068	0.150117	0.701266	0.931116	0	0
5.3	-2.62521	1.50599	0.75663	0.777484	-0.450035	0.956961	0.0950698	-0.0553228	-0.0838769	0.109243	-0.0520807	0	0	-0.00284253	-0.254744	-0.0530722	0.362928	0.110576	0	0	0.0541915	0.044854	-0.0900077	-0.361071	-0.051005	-0.295097	0.558519	1.49773	0	0	-0.230766	-0.241777	0.153071	0.707931	0.934428	0	0
5.31	-2.61475	1.50505	0.754365	0.772775	-0.449451	0.957233	0.0877688	-0.048596	-0.0877656	0.0998791	-0.0526225	0	0	0.0088147	-0.26199	-0.0455513	0.378214	0.106026	0	0	0.052601	0.045493	-0.0899676	-0.359023	-0.0547778	-0.28997	0.566615	1.48838	0	0	-0.231868	-0.242306	0.153877	0.712165	0.945278	0	0
5.32	-2.601	1.50353	0.748451	0.768347	-0.448854	0.957565	0.0809252	-0.0416017	-0.0906788	0.0903472	-0.0542827	0	0	0.0209026	-0.269069	-0.0382344	0.393528	0.101163	0	0	0.0506215	0.043813	-0.0977693	-0.350378	-0.0631547	-0.267752	0.567572	1.47433	0	0	-0.239668	-0.240609	0.14165	0.720922	0.961055	0	0
5.33	-2.59642	1.50367	0.752475	0.763676	-0.448359	0.957731	0.0728064	-0.0359561	-0.0947085	0.0805	-0.0543376	0	0	0.0325463	-0.274678	-0.0318889	0.409024	0.0964437	0	0	0.0495441	0.0467987	-0.0899717	-0.355018	-0.0630502	-0.278298	0.582772	1.46769	0	0	-0.230933	-0.242132	0.159287	0.714082	0.974603	0	0
5.34	-2.58887	1.50315	0.753252	0.759317	-0.447863	0.957975	0.0655468	-0.0299372	-0.0982233	0.071044	-0.055158	0	0	0.0450635	-0.280301	-0.0265292	0.425266	0.0908716	0	0	0.0480217	0.0475442	-0.0896936	-0.352884	-0.066955	-0.274795	0.590099	1.46233	0	0	-0.22918	-0.24122	0.163321	0.712313	0.990459	0	0
5.35	-2.58507	1.50257	0.757473	0.755092	-0.447372	0.958183	0.059013	-0.0241575	-0.101392	0.0620792	-0.0560987	0	0	0.0580528	-0.285322	-0.0225443	0.441941	0.0844664	0	0	0.0467155	0.0482216	-0.0894724	-0.3505	-0.0715026	-0.269526	0.597077	1.45493	0	0	-0.227526	-0.239354	0.16628	0.708897	1.01144	0	0
5.36	-2.58546	1.50208	0.765184	0.751041	-0.446848	0.958352	0.0533543	-0.0187984	-0.103704	0.0539634	-0.0571907	0	0	0.0712058	-0.289518	-0.0204691	0.458966	0.0775208	0	0	0.0454663	0.049101	-0.0886428	-0.348466	-0.0759403	-0.266533	0.605307	1.44873	0	0	-0.225388	-0.236808	0.16895	0.704265	1.03349	0	0
5.37	-2.58776	1.50202	0.774212	0.747123	-0.446292	0.958525	0.0482881	-0.0139611	-0.105398	0.0469724	-0.0583482	0	0	0.084173	-0.29273	-0.0201264	0.476313	0.0702788	0	0	0.0439104	0.0499398	-0.0867007	-0.346463	-0.0800538	-0.266573	0.613768	1.44502	0	0	-0.222464	-0.233964	0.172401	0.698873	1.04882	0	0
5.38	-2.58735	1.50241	0.780108	0.743331	-0.445782	0.958724	0.0430549	-0.00936681	-0.106454	0.0403116	-0.0598076	0	0	0.0963858	-0.295104	-0.0211997	0.493626	0.063436	0	0	0.041801	0.0506756	-0.0845955	-0.344328	-0.0845157	-0.266604	0.622694	1.4392	0	0	-0.219861	-0.229498	0.171277	0.692675	1.06569	0	0
5.39	-2.58769	1.50278	0.786766	0.739698	-0.44533	0.958911	0.0381532	-0.00486652	-0.107873	0.0339992	-0.060967	0	0	0.108603	-0.296942	-0.0239577	0.511134	0.0573976	0	0	0.0398271	0.0515804	-0.0829762	-0.342407	-0.0895742	-0.262999	0.631234	1.43129	0	0	-0.21755	-0.223352	0.164783	0.684842	1.08986	0	0
